# xmcd
#
# Track frame offsets: 
#        150
#        9162
#        21185
#        32372
#        43960
#        62197
#        74242
#        86677
#        98810
#        112062
#        130130
#        143222
#        155065
#        167162
#
# Disc length: 2375 seconds
#
# Revision: 5
# Processed by: cddbd v1.5.1PL0 Copyright (c) Steve Scherf et al.
# Submitted via: ExactAudioCopy v0.90b4
#
DISCID=c509450e
DTITLE=Show De Bandas Volume 8 - Show De Bandas Volume 8
DYEAR=1900
DGENRE=Dance
TTITLE0=Nos Braços Do Coroa - Os Atuais
TTITLE1=Baton 24 Horas - Champion
TTITLE2=Vai Ter Arrasta Pé - Terceira Dimensão
TTITLE3=Gabriela - San Marino
TTITLE4=Popozuda Da Vila - Musical JM
TTITLE5=Vai Ter Bailão - Alma Latina
TTITLE6=A Mulherada - Grupo Momento
TTITLE7=Me Devolver Pro Meu Pai - Sangue Latino
TTITLE8=Prima Da Maria Tchá Tchá Tchá - Brilha Som
TTITLE9=Mário Fuck Fuck - Os 3 Xirús E Banda
TTITLE10=Maria Peituda - Estrela Azul
TTITLE11=Baile das namoradas - 5a. Avenida
TTITLE12=Paixão De Mulher - Musical Panorama
TTITLE13=Cinturinha De Pilão - Flor Da Serra
EXTD=ID3G:   2
EXTT0=
EXTT1=
EXTT2=
EXTT3=
EXTT4=
EXTT5=
EXTT6=
EXTT7=
EXTT8=
EXTT9=
EXTT10=
EXTT11=
EXTT12=
EXTT13=
PLAYORDER=
